<?xml version="1.0" standalone="no"?>
<!DOCTYPE svg PUBLIC "-//W3C//DTD SVG 20010904//EN"
 "http://www.w3.org/TR/2001/REC-SVG-20010904/DTD/svg10.dtd">
<svg version="1.0" xmlns="http://www.w3.org/2000/svg"
 width="800.000000pt" height="600.000000pt" viewBox="0 0 800.000000 600.000000"
 preserveAspectRatio="xMidYMid meet">

<g transform="translate(0.000000,600.000000) scale(0.100000,-0.100000)"
fill="#000000" stroke="none">
<path d="M2885 3723 c-16 -9 -84 -36 -150 -60 -66 -24 -138 -56 -160 -72 -46
-33 -104 -112 -112 -153 -8 -38 -15 -35 -40 15 -26 53 -81 117 -122 140 -30
17 -32 17 -38 1 -4 -11 -1 -19 8 -22 32 -10 103 -99 138 -171 33 -70 36 -85
39 -183 3 -78 1 -108 -7 -108 -7 0 -54 18 -106 40 -128 54 -194 70 -295 70
-150 -1 -243 -36 -344 -130 -271 -254 -215 -786 128 -1217 98 -123 191 -190
315 -227 84 -25 142 -21 224 16 94 41 143 42 227 4 112 -51 198 -46 329 16 78
37 201 152 268 250 l48 71 3 -37 c3 -36 4 -36 48 -36 l44 0 0 123 c1 116 2
126 33 197 30 68 36 75 70 83 52 13 108 -16 124 -63 7 -21 12 -97 12 -187 l1
-153 40 0 40 0 0 177 c0 158 -2 181 -21 219 -27 56 -73 84 -150 91 -59 6 -61
7 -55 32 3 14 9 78 12 141 22 378 -183 630 -511 630 -133 0 -264 -41 -364
-114 -76 -56 -111 -69 -176 -70 -43 0 -72 6 -103 22 -46 24 -72 21 -50 -5 23
-28 91 -53 144 -53 68 0 114 17 208 79 89 58 207 100 306 108 189 16 367 -82
450 -247 48 -96 63 -171 62 -310 -1 -148 -17 -226 -50 -248 -22 -14 -23 -14
-29 6 -4 18 -13 22 -44 22 l-39 0 0 -169 0 -169 -45 -67 c-109 -163 -188 -241
-300 -295 -113 -56 -201 -58 -298 -9 -67 35 -142 36 -217 4 -132 -55 -188 -53
-318 11 -152 74 -298 257 -414 518 -151 341 -102 721 112 866 160 109 337 117
543 24 45 -20 101 -39 124 -41 39 -5 44 -3 53 22 5 14 10 55 10 89 l0 63 70
-5 c214 -15 390 130 406 335 6 75 -11 146 -36 150 -8 1 -28 -5 -45 -14z m39
-119 c0 -76 -4 -96 -27 -140 -50 -98 -157 -166 -280 -179 -28 -3 -65 -2 -81 3
l-30 8 67 37 c68 39 193 134 236 180 15 16 21 32 17 43 -5 14 -18 6 -69 -43
-88 -84 -258 -195 -275 -179 -11 11 20 115 47 157 39 62 92 95 233 145 67 24
126 48 132 54 23 23 31 1 30 -86z"/>
<path d="M1977 3063 c-12 -11 -8 -23 8 -23 8 0 15 7 15 15 0 16 -12 20 -23 8z"/>
<path d="M1832 2992 c-98 -95 -137 -218 -129 -397 8 -166 60 -335 149 -482 80
-133 241 -304 254 -270 3 9 -14 33 -46 63 -120 113 -245 321 -290 484 -71 259
-28 497 107 595 23 16 42 36 42 43 2 27 -40 10 -87 -36z"/>
<path d="M6010 2295 l0 -365 45 0 45 0 0 365 0 365 -45 0 -45 0 0 -365z"/>
<path d="M2490 2285 l0 -355 50 0 50 0 0 165 0 165 170 0 170 0 0 45 0 45
-170 0 -170 0 0 100 0 100 185 0 185 0 0 45 0 45 -235 0 -235 0 0 -355z"/>
<path d="M3042 2624 c-27 -19 -29 -64 -4 -87 26 -24 68 -21 86 5 21 30 20 54
-4 78 -24 24 -48 25 -78 4z"/>
<path d="M3894 2396 c-85 -40 -134 -122 -134 -226 0 -72 19 -123 63 -168 86
-91 212 -106 326 -41 l54 31 -29 29 -29 29 -49 -25 c-81 -41 -144 -29 -204 39
-57 65 -54 66 143 66 l175 0 0 38 c0 51 -23 125 -52 168 -30 45 -108 84 -167
84 -27 0 -67 -10 -97 -24z m141 -70 c35 -15 75 -67 75 -98 0 -16 -13 -18 -125
-18 -117 0 -125 1 -125 19 0 40 80 109 128 111 7 0 28 -6 47 -14z"/>
<path d="M4421 2394 c-92 -46 -136 -128 -129 -244 5 -87 42 -151 112 -195 42
-25 59 -30 116 -30 55 0 73 4 107 27 42 28 53 27 53 -4 0 -14 8 -18 40 -18
l40 0 0 240 0 240 -39 0 c-34 0 -40 -4 -45 -26 -6 -24 -8 -25 -24 -11 -57 52
-152 60 -231 21z m178 -81 c35 -25 71 -99 71 -143 0 -45 -37 -118 -73 -144
-18 -14 -44 -21 -72 -21 -28 0 -54 7 -72 21 -36 26 -73 99 -73 144 0 50 38
120 80 148 41 28 97 25 139 -5z"/>
<path d="M5030 2404 c-19 -8 -42 -22 -52 -31 -16 -14 -18 -14 -27 11 -9 21
-17 26 -46 26 l-35 0 0 -340 0 -340 45 0 45 0 0 125 0 125 38 -25 c76 -50 184
-42 257 18 114 93 113 301 -1 395 -63 52 -153 67 -224 36z m150 -92 c34 -24
70 -98 70 -142 0 -44 -36 -118 -71 -143 -38 -27 -97 -32 -138 -10 -50 26 -71
61 -78 126 -10 94 32 171 102 190 32 9 88 -1 115 -21z"/>
<path d="M5600 2404 c-19 -8 -42 -22 -52 -31 -16 -14 -18 -13 -29 11 -10 21
-19 26 -51 26 l-38 0 0 -340 0 -340 50 0 50 0 0 127 c0 120 1 125 18 110 55
-50 149 -60 228 -23 179 83 179 369 0 452 -59 27 -124 30 -176 8z m146 -91
c71 -46 92 -165 42 -240 -64 -97 -189 -93 -240 8 -34 65 -18 179 30 222 42 38
119 43 168 10z"/>
<path d="M6340 2404 c-184 -79 -199 -348 -25 -449 81 -48 217 -41 289 16 l27
22 -27 28 -27 29 -32 -20 c-52 -32 -112 -35 -165 -8 -40 20 -90 76 -90 99 0 5
81 9 180 9 142 0 180 3 180 13 0 36 -24 136 -40 168 -48 93 -172 136 -270 93z
m159 -97 c20 -19 51 -74 51 -92 0 -3 -58 -5 -130 -5 -144 0 -146 1 -106 61 47
69 130 85 185 36z"/>
<path d="M3030 2170 l0 -240 52 0 51 0 -6 182 c-4 99 -7 207 -7 240 l0 58 -45
0 -45 0 0 -240z"/>
</g>
</svg>
